solid
  facet normal 0 0 -1
    outer Loop
      vertex 0.976906 0.976906 0.976906
      vertex 0.976906 -0.976906 0.976906
      vertex -0.976906 -0.976906 0.976906
    endloop
  endfacet
  facet normal 0 0 -1
    outer Loop
      vertex 0.976906 0.976906 0.976906
      vertex -0.976906 -0.976906 0.976906
      vertex -0.976906 0.976906 0.976906
    endloop
  endfacet
  facet normal 0 0 1
    outer Loop
      vertex 0.976906 -0.976906 -0.976906
      vertex 0.976906 0.976906 -0.976906
      vertex -0.976906 0.976906 -0.976906
    endloop
  endfacet
  facet normal 0 0 1
    outer Loop
      vertex 0.976906 -0.976906 -0.976906
      vertex -0.976906 0.976906 -0.976906
      vertex -0.976906 -0.976906 -0.976906
    endloop
  endfacet
  facet normal 0 1 0
    outer Loop
      vertex -0.976906 -0.976906 0.976906
      vertex 0.976906 -0.976906 0.976906
      vertex 0.976906 -0.976906 -0.976906
    endloop
  endfacet
  facet normal 0 1 0
    outer Loop
      vertex -0.976906 -0.976906 0.976906
      vertex 0.976906 -0.976906 -0.976906
      vertex -0.976906 -0.976906 -0.976906
    endloop
  endfacet
  facet normal 0 -1 0
    outer Loop
      vertex 0.976906 0.976906 0.976906
      vertex -0.976906 0.976906 0.976906
      vertex -0.976906 0.976906 -0.976906
    endloop
  endfacet
  facet normal 0 -1 0
    outer Loop
      vertex 0.976906 0.976906 0.976906
      vertex -0.976906 0.976906 -0.976906
      vertex 0.976906 0.976906 -0.976906
    endloop
  endfacet
  facet normal -1 0 0
    outer Loop
      vertex 0.976906 -0.976906 0.976906
      vertex 0.976906 0.976906 0.976906
      vertex 0.976906 0.976906 -0.976906
    endloop
  endfacet
  facet normal -1 0 0
    outer Loop
      vertex 0.976906 -0.976906 0.976906
      vertex 0.976906 0.976906 -0.976906
      vertex 0.976906 -0.976906 -0.976906
    endloop
  endfacet
  facet normal 1 0 0
    outer Loop
      vertex -0.976906 0.976906 0.976906
      vertex -0.976906 -0.976906 0.976906
      vertex -0.976906 -0.976906 -0.976906
    endloop
  endfacet
  facet normal 1 0 0
    outer Loop
      vertex -0.976906 0.976906 0.976906
      vertex -0.976906 -0.976906 -0.976906
      vertex -0.976906 0.976906 -0.976906
    endloop
  endfacet
  facet normal 0 0 -1
    outer Loop
      vertex 1.02309 1.02309 1.02309
      vertex 1.02309 -1.02309 1.02309
      vertex -1.02309 -1.02309 1.02309
    endloop
  endfacet
  facet normal 0 0 -1
    outer Loop
      vertex 1.02309 1.02309 1.02309
      vertex -1.02309 -1.02309 1.02309
      vertex -1.02309 1.02309 1.02309
    endloop
  endfacet
  facet normal 0 0 1
    outer Loop
      vertex 1.02309 -1.02309 -1.02309
      vertex 1.02309 1.02309 -1.02309
      vertex -1.02309 1.02309 -1.02309
    endloop
  endfacet
  facet normal 0 0 1
    outer Loop
      vertex 1.02309 -1.02309 -1.02309
      vertex -1.02309 1.02309 -1.02309
      vertex -1.02309 -1.02309 -1.02309
    endloop
  endfacet
  facet normal 0 1 0
    outer Loop
      vertex -1.02309 -1.02309 1.02309
      vertex 1.02309 -1.02309 1.02309
      vertex 1.02309 -1.02309 -1.02309
    endloop
  endfacet
  facet normal 0 1 0
    outer Loop
      vertex -1.02309 -1.02309 1.02309
      vertex 1.02309 -1.02309 -1.02309
      vertex -1.02309 -1.02309 -1.02309
    endloop
  endfacet
  facet normal 0 -1 0
    outer Loop
      vertex 1.02309 1.02309 1.02309
      vertex -1.02309 1.02309 1.02309
      vertex -1.02309 1.02309 -1.02309
    endloop
  endfacet
  facet normal 0 -1 0
    outer Loop
      vertex 1.02309 1.02309 1.02309
      vertex -1.02309 1.02309 -1.02309
      vertex 1.02309 1.02309 -1.02309
    endloop
  endfacet
  facet normal -1 0 0
    outer Loop
      vertex 1.02309 -1.02309 1.02309
      vertex 1.02309 1.02309 1.02309
      vertex 1.02309 1.02309 -1.02309
    endloop
  endfacet
  facet normal -1 0 0
    outer Loop
      vertex 1.02309 -1.02309 1.02309
      vertex 1.02309 1.02309 -1.02309
      vertex 1.02309 -1.02309 -1.02309
    endloop
  endfacet
  facet normal 1 0 0
    outer Loop
      vertex -1.02309 1.02309 1.02309
      vertex -1.02309 -1.02309 1.02309
      vertex -1.02309 -1.02309 -1.02309
    endloop
  endfacet
  facet normal 1 0 0
    outer Loop
      vertex -1.02309 1.02309 1.02309
      vertex -1.02309 -1.02309 -1.02309
      vertex -1.02309 1.02309 -1.02309
    endloop
  endfacet
endsolid
