solid
  facet normal 0 0 1
    outer loop
      vertex 0.976906 -0.976906 -0.976906
      vertex 0.976906 0.976906 -0.976906
      vertex -0.976906 0.976906 -0.976906
    endloop
  endfacet
  facet normal 0 0 1
    outer loop
      vertex 0.976906 -0.976906 -0.976906
      vertex -0.976906 0.976906 -0.976906
      vertex -0.976906 -0.976906 -0.976906
    endloop
  endfacet
  facet normal 0 0.999997 -0.00262543
    outer loop
      vertex -0.971716 -0.971716 1
      vertex 0.971716 -0.971716 1
      vertex 0.976906 -0.976906 -0.976906
    endloop
  endfacet
  facet normal 0 0.999997 -0.00262543
    outer loop
      vertex -0.971716 -0.971716 1
      vertex 0.976906 -0.976906 -0.976906
      vertex -0.976906 -0.976906 -0.976906
    endloop
  endfacet
  facet normal 0 -0.999997 -0.00262543
    outer loop
      vertex 0.971716 0.971716 1
      vertex -0.971716 0.971716 1
      vertex -0.976906 0.976906 -0.976906
    endloop
  endfacet
  facet normal 0 -0.999997 -0.00262543
    outer loop
      vertex 0.971716 0.971716 1
      vertex -0.976906 0.976906 -0.976906
      vertex 0.976906 0.976906 -0.976906
    endloop
  endfacet
  facet normal -0.999997 0 -0.00262543
    outer loop
      vertex 0.971716 -0.971716 1
      vertex 0.971716 0.971716 1
      vertex 0.976906 0.976906 -0.976906
    endloop
  endfacet
  facet normal -0.999997 0 -0.00262543
    outer loop
      vertex 0.971716 -0.971716 1
      vertex 0.976906 0.976906 -0.976906
      vertex 0.976906 -0.976906 -0.976906
    endloop
  endfacet
  facet normal 0.999997 0 -0.00262543
    outer loop
      vertex -0.971716 0.971716 1
      vertex -0.971716 -0.971716 1
      vertex -0.976906 -0.976906 -0.976906
    endloop
  endfacet
  facet normal 0.999997 0 -0.00262543
    outer loop
      vertex -0.971716 0.971716 1
      vertex -0.976906 -0.976906 -0.976906
      vertex -0.976906 0.976906 -0.976906
    endloop
  endfacet
  facet normal 0 0 1
    outer loop
      vertex 1.02309 -1.02309 -1.02309
      vertex 1.02309 1.02309 -1.02309
      vertex -1.02309 1.02309 -1.02309
    endloop
  endfacet
  facet normal 0 0 1
    outer loop
      vertex 1.02309 -1.02309 -1.02309
      vertex -1.02309 1.02309 -1.02309
      vertex -1.02309 -1.02309 -1.02309
    endloop
  endfacet
  facet normal 0 0.999997 0.00256549
    outer loop
      vertex -1.02828 -1.02828 1
      vertex 1.02828 -1.02828 1
      vertex 1.02309 -1.02309 -1.02309
    endloop
  endfacet
  facet normal 0 0.999997 0.00256549
    outer loop
      vertex -1.02828 -1.02828 1
      vertex 1.02309 -1.02309 -1.02309
      vertex -1.02309 -1.02309 -1.02309
    endloop
  endfacet
  facet normal 0 -0.999997 0.00256549
    outer loop
      vertex 1.02828 1.02828 1
      vertex -1.02828 1.02828 1
      vertex -1.02309 1.02309 -1.02309
    endloop
  endfacet
  facet normal 0 -0.999997 0.00256549
    outer loop
      vertex 1.02828 1.02828 1
      vertex -1.02309 1.02309 -1.02309
      vertex 1.02309 1.02309 -1.02309
    endloop
  endfacet
  facet normal -0.999997 0 0.00256549
    outer loop
      vertex 1.02828 -1.02828 1
      vertex 1.02828 1.02828 1
      vertex 1.02309 1.02309 -1.02309
    endloop
  endfacet
  facet normal -0.999997 0 0.00256549
    outer loop
      vertex 1.02828 -1.02828 1
      vertex 1.02309 1.02309 -1.02309
      vertex 1.02309 -1.02309 -1.02309
    endloop
  endfacet
  facet normal 0.999997 0 0.00256549
    outer loop
      vertex -1.02828 1.02828 1
      vertex -1.02828 -1.02828 1
      vertex -1.02309 -1.02309 -1.02309
    endloop
  endfacet
  facet normal 0.999997 0 0.00256549
    outer loop
      vertex -1.02828 1.02828 1
      vertex -1.02309 -1.02309 -1.02309
      vertex -1.02309 1.02309 -1.02309
    endloop
  endfacet
  facet normal 0 0 1
    outer loop
      vertex -0.971716 -0.971716 1
      vertex -1.02828 -1.02828 1
      vertex 1.02828 -1.02828 1
    endloop
  endfacet
  facet normal 0 0 1
    outer loop
      vertex -0.971716 -0.971716 1
      vertex 1.02828 -1.02828 1
      vertex 0.971716 -0.971716 1
    endloop
  endfacet
  facet normal 0 0 1
    outer loop
      vertex 0.971716 0.971716 1
      vertex 1.02828 1.02828 1
      vertex -1.02828 1.02828 1
    endloop
  endfacet
  facet normal 0 0 1
    outer loop
      vertex 0.971716 0.971716 1
      vertex -1.02828 1.02828 1
      vertex -0.971716 0.971716 1
    endloop
  endfacet
  facet normal 0 0 1
    outer loop
      vertex 0.971716 -0.971716 1
      vertex 1.02828 -1.02828 1
      vertex 1.02828 1.02828 1
    endloop
  endfacet
  facet normal 0 0 1
    outer loop
      vertex 0.971716 -0.971716 1
      vertex 1.02828 1.02828 1
      vertex 0.971716 0.971716 1
    endloop
  endfacet
  facet normal 0 0 1
    outer loop
      vertex -0.971716 0.971716 1
      vertex -1.02828 1.02828 1
      vertex -1.02828 -1.02828 1
    endloop
  endfacet
  facet normal 0 0 1
    outer loop
      vertex -0.971716 0.971716 1
      vertex -1.02828 -1.02828 1
      vertex -0.971716 -0.971716 1
    endloop
  endfacet
endsolid
