solid
  facet normal 0 0 1
    outer loop
      vertex 0.971814 -0.971814 -0.996673
      vertex 0.971814 0.971814 -0.996673
      vertex -0.971814 0.971814 -0.996673
    endloop
  endfacet
  facet normal 0 0 1
    outer loop
      vertex 0.971814 -0.971814 -0.996673
      vertex -0.971814 0.971814 -0.996673
      vertex -0.971814 -0.971814 -0.996673
    endloop
  endfacet
  facet normal -0.895618 0 -0.444824
    outer loop
      vertex 0 0 0.96
      vertex 0.971814 0.971814 -0.996673
      vertex 0.971814 -0.971814 -0.996673
    endloop
  endfacet
  facet normal 0 0.895618 -0.444824
    outer loop
      vertex 0 0 0.96
      vertex 0.971814 -0.971814 -0.996673
      vertex -0.971814 -0.971814 -0.996673
    endloop
  endfacet
  facet normal 0.895618 0 -0.444824
    outer loop
      vertex 0 0 0.96
      vertex -0.971814 -0.971814 -0.996673
      vertex -0.971814 0.971814 -0.996673
    endloop
  endfacet
  facet normal 0 -0.895618 -0.444824
    outer loop
      vertex 0 0 0.96
      vertex -0.971814 0.971814 -0.996673
      vertex 0.971814 0.971814 -0.996673
    endloop
  endfacet
  facet normal 0 0 1
    outer loop
      vertex 1.02819 -1.02819 -1.00333
      vertex 1.02819 1.02819 -1.00333
      vertex -1.02819 1.02819 -1.00333
    endloop
  endfacet
  facet normal 0 0 1
    outer loop
      vertex 1.02819 -1.02819 -1.00333
      vertex -1.02819 1.02819 -1.00333
      vertex -1.02819 -1.02819 -1.00333
    endloop
  endfacet
  facet normal -0.893284 0 -0.449493
    outer loop
      vertex 0 0 1.04
      vertex 1.02819 1.02819 -1.00333
      vertex 1.02819 -1.02819 -1.00333
    endloop
  endfacet
  facet normal 0 0.893284 -0.449493
    outer loop
      vertex 0 0 1.04
      vertex 1.02819 -1.02819 -1.00333
      vertex -1.02819 -1.02819 -1.00333
    endloop
  endfacet
  facet normal 0.893284 0 -0.449493
    outer loop
      vertex 0 0 1.04
      vertex -1.02819 -1.02819 -1.00333
      vertex -1.02819 1.02819 -1.00333
    endloop
  endfacet
  facet normal 0 -0.893284 -0.449493
    outer loop
      vertex 0 0 1.04
      vertex -1.02819 1.02819 -1.00333
      vertex 1.02819 1.02819 -1.00333
    endloop
  endfacet
endsolid
